Coordinates
version=1
nRows=9
nColumns=60
inDegrees=yes

Units are S.I. units (second, meters, Newtons, ...)
If the header above contains a line with 'inDegrees', this indicates whether rotational values are in degrees (yes) or radians (no).

endheader
time	pelvis_tilt	pelvis_list	pelvis_rotation	pelvis_tx	pelvis_ty	pelvis_tz	hip_flexion_r	hip_adduction_r	hip_rotation_r	knee_angle_r_beta	knee_angle_r	ankle_angle_r	subtalar_angle_r	mtp_angle_r	hip_flexion_l	hip_adduction_l	hip_rotation_l	knee_angle_l_beta	knee_angle_l	ankle_angle_l	subtalar_angle_l	mtp_angle_l	L5_S1_Flex_Ext	L5_S1_Lat_Bending	L5_S1_axial_rotation	L4_L5_Flex_Ext	L4_L5_Lat_Bending	L4_L5_axial_rotation	L3_L4_Flex_Ext	L3_L4_Lat_Bending	L3_L4_axial_rotation	L2_L3_Flex_Ext	L2_L3_Lat_Bending	L2_L3_axial_rotation	L1_L2_Flex_Ext	L1_L2_Lat_Bending	L1_L2_axial_rotation	L1_T12_Flex_Ext	L1_T12_Lat_Bending	L1_T12_axial_rotation	Abs_r3	Abs_r2	Abs_r1	Abs_t1	Abs_t2	arm_flex_r	arm_add_r	arm_rot_r	elbow_flex_r	pro_sup_r	wrist_flex_r	wrist_dev_r	arm_flex_l	arm_add_l	arm_rot_l	elbow_flex_l	pro_sup_l	wrist_flex_l	wrist_dev_l
      1.52000000	      0.56720183	    -16.57238324	     94.89332128	      0.40035185	      0.83854237	      0.42259301	     52.68783270	     -7.62695970	     -0.52808953	      0.76256272	    -43.69162554	     10.06108489	      0.00000000	      0.00000000	     53.10065705	     -3.72646174	      1.46134606	      0.71579018	    -41.01175649	      8.46813489	      0.00000000	      0.00000000	    -10.50196641	      0.24693098	     -0.22361766	    -19.50320183	      0.32841820	     -0.23759376	    -17.25368062	      0.60038797	     -0.23759376	    -12.00269742	      0.60038797	     -0.19566545	     -9.75212601	      0.50354164	     -0.18168935	     -6.00082361	      0.38249608	     -0.16771324	    -75.01449590	      2.79333258	     -1.24369432	      0.00000000	      0.00000000	     86.10237264	    -14.77603484	     24.15468992	     39.47318007	     61.69211019	    -13.46364130	     20.00254662	     92.35861869	    -13.82294766	     42.74240839	     35.61313677	     47.82047805	    -15.91436196	     16.28669130
      1.53000000	      0.67457981	    -16.71065666	     94.93864780	      0.40053062	      0.83772765	      0.42226161	     52.93152846	     -7.56042642	     -0.55523546	      0.76615738	    -43.89758450	     10.12904134	      0.00000000	      0.00000000	     53.36440819	     -3.81408996	      1.47683274	      0.71857333	    -41.17121916	      8.52282241	      0.00000000	      0.00000000	    -10.47313442	      0.26046379	     -0.19251442	    -19.44965793	      0.34641684	     -0.20454657	    -17.20631254	      0.63329166	     -0.20454657	    -11.96974533	      0.63329166	     -0.16845012	     -9.72535262	      0.53113776	     -0.15641796	     -5.98434901	      0.40345841	     -0.14438581	    -74.80855186	      2.94641850	     -1.07070743	      0.00000000	      0.00000000	     85.85775791	    -15.27194859	     24.70497122	     40.18837080	     61.06629771	    -13.73546853	     20.33931815	     91.97746025	    -13.99479502	     42.38826486	     36.46084738	     48.16557743	    -16.34666380	     16.83226631
      1.54000000	      0.64013487	    -16.37160159	     94.94074037	      0.40072199	      0.83757010	      0.42147800	     52.72542135	     -7.64788003	     -0.79673956	      0.77277534	    -44.27676553	     10.29121313	      0.00000000	      0.00000000	     53.22209951	     -3.84002354	      1.44472147	      0.72735405	    -41.67431735	      8.68978870	      0.00000000	      0.00000000	    -10.50235632	      0.25804023	     -0.20706371	    -19.50392592	      0.34319350	     -0.22000519	    -17.25432120	      0.62739901	     -0.22000519	    -12.00314304	      0.62739901	     -0.18118074	     -9.75248808	      0.52619563	     -0.16823926	     -6.00104640	      0.39970431	     -0.15529778	    -75.01728096	      2.91900265	     -1.15162622	      0.00000000	      0.00000000	     85.66339495	    -15.11812489	     24.59882750	     40.14606057	     61.22569737	    -13.78987551	     20.08581302	     91.73342047	    -14.00510116	     42.04790398	     36.36784208	     48.47588071	    -16.16318124	     16.61176946
      1.55000000	      0.63286385	    -16.22671631	     94.97876494	      0.40088374	      0.83729790	      0.42084596	     52.67803033	     -7.67425165	     -0.84009693	      0.77778451	    -44.56376992	     10.39581054	      0.00000000	      0.00000000	     53.19049151	     -3.84683922	      1.41550734	      0.73178908	    -41.92842590	      8.76842706	      0.00000000	      0.00000000	    -10.50406624	      0.25994833	     -0.20522173	    -19.50710142	      0.34573129	     -0.21804809	    -17.25713043	      0.63203838	     -0.21804809	    -12.00509731	      0.63203838	     -0.17956902	     -9.75407591	      0.53008664	     -0.16674266	     -6.00202345	      0.40265997	     -0.15391630	    -75.02949476	      2.94058755	     -1.14138171	      0.00000000	      0.00000000	     85.34483324	    -15.16661464	     24.41064349	     40.34571175	     61.37485766	    -13.82212332	     20.03891449	     91.49925753	    -14.00206291	     41.99401798	     36.46092310	     48.54909118	    -16.19729109	     16.50830547
      1.56000000	      0.64603598	    -16.12289161	     95.02126561	      0.40106169	      0.83707187	      0.42022493	     52.65774044	     -7.68154733	     -0.89239019	      0.78207145	    -44.80939341	     10.49259473	      0.00000000	      0.00000000	     53.19248189	     -3.85921929	      1.43027033	      0.73602085	    -42.17088837	      8.82740748	      0.00000000	      0.00000000	    -10.50364083	      0.26403895	     -0.19101611	    -19.50631138	      0.35117180	     -0.20295462	    -17.25643151	      0.64198430	     -0.20295462	    -12.00461110	      0.64198430	     -0.16713910	     -9.75368087	      0.53842822	     -0.15520059	     -6.00178037	      0.40899633	     -0.14326208	    -75.02645605	      2.98686139	     -1.06237430	      0.00000000	      0.00000000	     84.95143296	    -15.39808573	     24.30039079	     40.85475267	     61.40654190	    -13.97860405	     20.16539199	     91.22107486	    -13.93600146	     41.71074654	     36.64631173	     48.86285889	    -16.24654715	     16.58209049
      1.57000000	      0.64361161	    -16.02258024	     95.06136119	      0.40124260	      0.83707679	      0.41959396	     52.55198238	     -7.67484887	     -0.87475589	      0.78328801	    -44.87909693	     10.49613238	      0.00000000	      0.00000000	     53.09811445	     -3.85797918	      1.43529986	      0.73694592	    -42.22389080	      8.82219267	      0.00000000	      0.00000000	    -10.49838944	      0.26583835	     -0.19438156	    -19.49655903	      0.35356501	     -0.20653041	    -17.24780401	      0.64635937	     -0.20653041	    -11.99860929	      0.64635937	     -0.17008387	     -9.74880444	      0.54209757	     -0.15793502	     -5.99877973	      0.41178361	     -0.14578617	    -74.98894594	      3.00721660	     -1.08109192	      0.00000000	      0.00000000	     84.72337722	    -15.39013557	     24.28103854	     40.85467630	     61.42382180	    -13.97803450	     20.14459054	     91.00070512	    -13.93657917	     41.71164676	     36.64090177	     48.86459155	    -16.24067683	     16.55816388
      1.58000000	      0.63217464	    -16.00451289	     95.11852843	      0.40140838	      0.83707786	      0.41897806	     52.54466233	     -7.68998958	     -0.85755981	      0.78499780	    -44.97706114	     10.53025247	      0.00000000	      0.00000000	     53.09882999	     -3.83474799	      1.42897710	      0.73807266	    -42.28844840	      8.83401821	      0.00000000	      0.00000000	    -10.49494755	      0.27071459	     -0.18360004	    -19.49016710	      0.36005040	     -0.19507504	    -17.24214934	      0.65821545	     -0.19507504	    -11.99467556	      0.65821545	     -0.16065003	     -9.74560830	      0.55204119	     -0.14917503	     -5.99681303	      0.41933690	     -0.13770003	    -74.96436088	      3.06237756	     -1.02112832	      0.00000000	      0.00000000	     84.28114445	    -15.77154492	     24.35495594	     41.68519083	     61.30632442	    -14.34832038	     20.19274696	     90.71718602	    -13.89208418	     41.42660227	     36.86540481	     49.12889000	    -16.24754224	     16.44206147
      1.59000000	      0.65663473	    -15.75335789	     95.25231216	      0.40150189	      0.83729885	      0.41810177	     52.34326148	     -7.75193422	     -1.00337705	      0.79056869	    -45.29624919	     10.77566914	      0.00000000	      0.00000000	     52.93172993	     -3.80422370	      1.49748939	      0.74235323	    -42.53370722	      8.88310469	      0.00000000	      0.00000000	    -10.50130584	      0.28142314	     -0.19959848	    -19.50197507	      0.37429277	     -0.21207338	    -17.25259536	      0.68425222	     -0.21207338	    -12.00194244	      0.68425222	     -0.17464867	     -9.75151260	      0.57387806	     -0.16217376	     -6.00044616	      0.43592444	     -0.14969886	    -75.00977747	      3.18351482	     -1.11010685	      0.00000000	      0.00000000	     83.88080925	    -15.17928492	     22.89580041	     41.22064009	     62.80914925	    -13.85094844	     20.13408140	     90.32724266	    -13.64372008	     40.66836887	     36.49233463	     49.88137737	    -15.97118596	     16.25255109
      1.60000000	      0.66645800	    -15.67272532	     95.31324648	      0.40170034	      0.83757210	      0.41742142	     52.22010808	     -7.73304798	     -0.97863016	      0.79126355	    -45.33606218	     10.76652768	      0.00000000	      0.00000000	     52.83006912	     -3.80504480	      1.50280548	      0.74271033	    -42.55416706	      8.86348507	      0.00000000	      0.00000000	    -10.49528227	      0.28360507	     -0.20451623	    -19.49078871	      0.37719474	     -0.21729850	    -17.24269924	      0.68955737	     -0.21729850	    -11.99505811	      0.68955737	     -0.17895171	     -9.74591912	      0.57832746	     -0.16616944	     -5.99700429	      0.43930425	     -0.15338718	    -74.96675174	      3.20819728	     -1.13745794	      0.00000000	      0.00000000	     83.65446946	    -15.16343951	     22.90024914	     41.19565853	     62.79198723	    -13.85405903	     20.09878228	     90.11944425	    -13.64308801	     40.69165016	     36.45953023	     49.87499094	    -15.95048017	     16.23288457
